HIERARCHY
ROOT Hips
{
	OFFSET -0.001795 -0.223333 0.028219
	CHANNELS 6 Xposition Yposition Zposition Zrotation Yrotation Xrotation 
	JOINT LeftUpLeg
	{
		OFFSET 0.069520 -0.091406 -0.006815
		CHANNELS 3 Zrotation Yrotation Xrotation
		JOINT LeftLeg
		{
			OFFSET 0.034277 -0.375199 -0.004496
			CHANNELS 3 Zrotation Yrotation Xrotation
			JOINT LeftFoot
			{
				OFFSET -0.013596 -0.397961 -0.043693
				CHANNELS 3 Zrotation Yrotation Xrotation
				JOINT LeftToe
				{
					OFFSET 0.026358 -0.055791 0.119288
					CHANNELS 3 Zrotation Yrotation Xrotation
					End Site
					{
						OFFSET 0.000000 0.000000 0.000000
					}
				}
			}
		}
	}
	JOINT RightUpLeg
	{
		OFFSET -0.067670 -0.090522 -0.004320
		CHANNELS 3 Zrotation Yrotation Xrotation
		JOINT RightLeg
		{
			OFFSET -0.038290 -0.382569 -0.008850
			CHANNELS 3 Zrotation Yrotation Xrotation
			JOINT RightFoot
			{
				OFFSET 0.015774 -0.398415 -0.042312
				CHANNELS 3 Zrotation Yrotation Xrotation
				JOINT RightToe
				{
					OFFSET -0.025372 -0.048144 0.123348
					CHANNELS 3 Zrotation Yrotation Xrotation
					End Site
					{
						OFFSET 0.000000 0.000000 0.000000
					}
				}
			}
		}
	}
	JOINT Spine
	{
		OFFSET -0.002533 0.108963 -0.026696
		CHANNELS 3 Zrotation Yrotation Xrotation
		JOINT Spine1
		{
			OFFSET 0.005487 0.135180 0.001092
			CHANNELS 3 Zrotation Yrotation Xrotation
			JOINT Spine2
			{
				OFFSET 0.001457 0.052922 0.025425
				CHANNELS 3 Zrotation Yrotation Xrotation
				JOINT Neck
				{
					OFFSET -0.002778 0.213870 -0.042857
					CHANNELS 3 Zrotation Yrotation Xrotation
					JOINT Head
					{
						OFFSET 0.005152 0.064970 0.051349
						CHANNELS 3 Zrotation Yrotation Xrotation
						End Site
						{
							OFFSET 0.000000 0.000000 0.000000
						}
					}
				}
				JOINT LeftShoulder
				{
					OFFSET 0.078845 0.121749 -0.034090
					CHANNELS 3 Zrotation Yrotation Xrotation
					JOINT LeftArm
					{
						OFFSET 0.090977 0.030469 -0.008868
						CHANNELS 3 Zrotation Yrotation Xrotation
						JOINT LeftForeArm
						{
							OFFSET 0.259612 -0.012772 -0.027456
							CHANNELS 3 Zrotation Yrotation Xrotation
							JOINT LeftHand
							{
								OFFSET 0.249234 0.008986 -0.001171
								CHANNELS 3 Zrotation Yrotation Xrotation
								End Site
								{
									OFFSET 0.000000 0.000000 0.000000
								}
							}
						}
					}
				}
				JOINT RightShoulder
				{
					OFFSET -0.081759 0.118833 -0.038615
					CHANNELS 3 Zrotation Yrotation Xrotation
					JOINT RightArm
					{
						OFFSET -0.096012 0.032551 -0.009143
						CHANNELS 3 Zrotation Yrotation Xrotation
						JOINT RightForeArm
						{
							OFFSET -0.253742 -0.013329 -0.021401
							CHANNELS 3 Zrotation Yrotation Xrotation
							JOINT RightHand
							{
								OFFSET -0.255298 0.007772 -0.005559
								CHANNELS 3 Zrotation Yrotation Xrotation
								End Site
								{
									OFFSET 0.000000 0.000000 0.000000
								}
							}
						}
					}
				}
			}
		}
	}
}
MOTION
Frames: 15
Frame Time: 0.050000
0.000000 0.954912 0.000000 -0.880823 -1.025298 0.922697 0.554742 0.131875 1.594468 0.910204 -0.038867 -1.486793 -2.269795 -1.933664 5.715347 0.000000 0.000000 0.000000 1.598210 -0.134686 0.800409 -1.086623 0.113842 0.018550 2.251198 2.263516 5.745819 0.000000 0.000000 0.000000 0.145112 -0.078545 1.823915 -1.396932 0.690268 -2.265340 0.061921 -0.290618 6.874408 2.279666 -0.250479 -17.299542 0.000000 0.000000 0.000000 -23.498078 -0.772312 -1.517558 -48.396613 -6.164885 -3.615338 -10.155573 -20.640341 2.668236 0.000000 0.000000 0.000000 22.073681 0.298349 -2.121550 53.859802 5.515708 -2.956154 8.253601 20.552715 2.001691 0.000000 0.000000 0.000000 
-0.000036 0.954174 0.001118 -0.798980 -1.084006 1.244668 0.570914 0.137724 1.670646 0.896446 -0.007275 -2.207629 -2.934352 -3.145841 5.852694 0.000000 0.000000 0.000000 0.960854 -0.080603 0.492393 -0.704791 0.078261 0.114020 2.649110 3.823087 4.605014 0.000000 0.000000 0.000000 0.030872 -0.047665 1.148000 -1.811422 0.870802 -0.870092 0.214900 -0.895934 5.786128 1.548583 0.214280 -18.420779 0.000000 0.000000 0.000000 -23.123916 0.092958 -1.828883 -49.177298 -6.314595 -3.558168 -10.266804 -21.057695 2.768294 0.000000 0.000000 0.000000 21.617701 0.367616 -2.263261 54.422914 4.746331 -3.178119 9.039521 22.350462 2.295752 0.000000 0.000000 0.000000 
-0.000028 0.953391 0.001951 -0.595357 -0.995336 1.222048 0.297596 0.123564 1.427685 1.189641 -0.076416 -1.253280 -3.117320 -4.249228 4.383414 0.000000 0.000000 0.000000 1.010842 -0.081016 0.483046 -0.769604 0.094873 0.321841 2.061161 3.211465 3.312145 0.000000 0.000000 0.000000 0.124637 -0.058415 1.355096 -1.486753 0.736888 -2.996508 -0.080381 -0.959598 7.558454 1.060207 0.429689 -17.733493 0.000000 0.000000 0.000000 -22.516968 -0.328132 -1.468808 -49.235659 -6.319891 -3.717821 -10.713393 -20.872091 2.838976 0.000000 0.000000 0.000000 22.457501 1.120856 -1.867495 53.571754 4.701188 -3.313136 7.457683 22.482775 2.048289 0.000000 0.000000 0.000000 
-0.000190 0.952838 0.002837 -0.539391 -0.649483 1.193060 0.244370 0.146134 1.669160 1.188962 -0.065935 -1.468722 -3.773339 -5.463371 4.500838 0.000000 0.000000 0.000000 0.876392 -0.102108 0.724778 -0.446999 0.061456 0.337530 1.958508 3.234445 2.889223 0.000000 0.000000 0.000000 -0.103074 -0.047403 1.220288 -1.475707 0.729191 -2.386781 0.234715 -1.680183 7.044198 1.021128 0.389153 -17.720678 0.000000 0.000000 0.000000 -22.643004 0.816932 -1.985729 -49.344584 -6.466501 -3.665719 -11.657689 -21.119970 3.078485 0.000000 0.000000 0.000000 22.504959 1.474966 -1.875245 53.010641 4.678940 -3.187622 8.185469 22.204848 2.113778 0.000000 0.000000 0.000000 
-0.000325 0.952530 0.003695 -0.459088 -0.560025 0.967680 -0.005497 0.187960 2.045984 1.522381 -0.097853 -1.478269 -3.528738 -4.918142 4.600017 0.000000 0.000000 0.000000 0.811161 -0.138551 1.092219 -0.606639 0.066481 0.066128 1.932760 3.440109 2.445141 0.000000 0.000000 0.000000 0.081963 -0.056005 1.326360 -1.312923 0.653017 -2.102523 -0.051190 -1.479648 6.913564 0.857149 0.475075 -17.028223 0.000000 0.000000 0.000000 -22.751885 0.129824 -1.687756 -49.226364 -6.598012 -3.577681 -11.474827 -21.045255 3.016014 0.000000 0.000000 0.000000 22.392401 1.552232 -1.728015 53.231612 4.913090 -3.113831 7.867044 21.909479 2.039371 0.000000 0.000000 0.000000 
-0.000534 0.952240 0.004619 -0.293194 -0.258353 0.899783 -0.105100 0.212898 2.286139 1.523999 -0.091985 -1.588342 -3.650301 -5.342261 4.237594 0.000000 0.000000 0.000000 0.612630 -0.163558 1.400111 -0.675295 0.073669 0.056419 1.986586 3.780571 2.120774 0.000000 0.000000 0.000000 0.022447 -0.059020 1.436136 -1.285868 0.647415 -2.476462 0.051346 -1.857600 7.377006 0.537824 0.648754 -17.257884 0.000000 0.000000 0.000000 -23.089357 0.409157 -1.788024 -49.111712 -6.688177 -3.602974 -11.712847 -21.542465 3.154408 0.000000 0.000000 0.000000 22.358912 1.821939 -1.628542 52.938543 5.031438 -3.074478 7.883529 21.199051 1.963233 0.000000 0.000000 0.000000 
-0.000838 0.952141 0.005454 -0.080779 -0.055907 0.908174 -0.331794 0.233730 2.427049 1.712333 -0.100980 -1.759645 -3.603857 -5.046510 4.579169 0.000000 0.000000 0.000000 0.462700 -0.171940 1.535499 -0.843417 0.084660 -0.095083 2.091007 4.172658 1.914522 0.000000 0.000000 0.000000 0.207183 -0.063019 1.428053 -1.438298 0.714383 -2.185374 -0.096664 -2.106585 7.360378 0.470122 0.698585 -17.628112 0.000000 0.000000 0.000000 -23.318369 0.380056 -1.752905 -49.160800 -6.831598 -3.559874 -11.541056 -21.860288 3.176553 0.000000 0.000000 0.000000 22.376672 1.900548 -1.625069 53.292015 5.183715 -3.016782 7.121818 20.898145 1.802189 0.000000 0.000000 0.000000 
-0.001256 0.952097 0.006237 0.094865 0.355341 0.948199 -0.439258 0.250316 2.567002 1.721666 -0.102128 -1.726368 -3.445381 -4.945923 4.151242 0.000000 0.000000 0.000000 0.320168 -0.136424 1.243532 -1.031558 0.127344 0.361838 2.091036 4.491102 1.424092 0.000000 0.000000 0.000000 0.252419 -0.066431 1.484579 -1.421615 0.710175 -2.234658 -0.428064 -2.397721 7.657543 0.586032 0.628005 -17.700961 0.000000 0.000000 0.000000 -23.563809 -0.008675 -1.526727 -48.760926 -7.104394 -3.459833 -11.544637 -22.297953 3.245982 0.000000 0.000000 0.000000 22.619200 2.142356 -1.509397 53.097756 5.389639 -2.936014 6.995687 20.443247 1.740292 0.000000 0.000000 0.000000 
-0.001897 0.952008 0.006926 0.275082 0.580128 1.041649 -0.606192 0.239416 2.389376 1.769394 -0.122555 -1.388575 -3.095889 -4.323165 3.994779 0.000000 0.000000 0.000000 0.038907 -0.096239 0.944627 -0.909956 0.135465 0.807908 1.921530 4.332309 1.001719 0.000000 0.000000 0.000000 0.350702 -0.068308 1.471935 -1.532836 0.760906 -2.151333 -0.504499 -2.596270 7.775153 0.268475 0.819592 -17.902161 0.000000 0.000000 0.000000 -23.469752 0.007435 -1.500814 -48.877146 -7.246022 -3.426421 -11.724518 -22.384578 3.301370 0.000000 0.000000 0.000000 22.387028 2.211914 -1.461737 53.156448 5.633981 -2.841426 7.035963 20.251046 1.726965 0.000000 0.000000 0.000000 
-0.002769 0.952092 0.007522 0.460627 0.729377 1.169382 -0.711817 0.244293 2.397924 1.708268 -0.128343 -1.140933 -2.773418 -3.944138 3.496484 0.000000 0.000000 0.000000 -0.179443 -0.058597 0.637843 -0.991325 0.172135 1.375417 1.747049 4.282227 0.370532 0.000000 0.000000 0.000000 0.478558 -0.073740 1.520106 -1.695626 0.836039 -2.193768 -0.647971 -2.754589 7.909100 0.270962 0.820277 -18.082629 0.000000 0.000000 0.000000 -23.782410 0.019631 -1.507448 -48.483043 -7.318496 -3.398262 -12.050928 -22.749214 3.429444 0.000000 0.000000 0.000000 22.465302 2.401886 -1.375384 52.788514 5.846609 -2.734520 7.305111 20.177658 1.761208 0.000000 0.000000 0.000000 
-0.003924 0.952205 0.008210 0.547864 1.198067 1.332598 -0.732058 0.233759 2.282793 1.648044 -0.141333 -0.721899 -2.843571 -4.163860 3.312787 0.000000 0.000000 0.000000 -0.255559 -0.009721 0.164195 -0.864560 0.192231 2.123670 1.452303 3.932398 -0.294005 0.000000 0.000000 0.000000 0.526819 -0.080811 1.643793 -1.740692 0.855419 -1.915481 -0.710433 -3.051120 7.630958 0.204932 0.870015 -18.292951 0.000000 0.000000 0.000000 -24.142606 -0.134288 -1.440925 -48.081857 -7.542327 -3.274449 -11.874269 -22.710489 3.383971 0.000000 0.000000 0.000000 22.141561 2.524246 -1.288377 52.953397 6.164604 -2.581232 7.224240 20.023988 1.730661 0.000000 0.000000 0.000000 
-0.005422 0.952604 0.009335 0.707106 1.250544 1.438846 -0.486385 0.215038 2.180005 1.334747 -0.148827 0.127850 -2.653887 -4.181350 2.594461 0.000000 0.000000 0.000000 -0.467494 0.061416 -0.513026 -0.615152 0.210204 3.248104 1.338071 4.079690 -1.017873 0.000000 0.000000 0.000000 0.519078 -0.102048 2.115681 -1.779767 0.878665 -2.362175 -0.607064 -3.159646 7.797313 0.580261 0.643338 -18.460516 0.000000 0.000000 0.000000 -24.665253 -0.093420 -1.460845 -47.600463 -7.928859 -3.137072 -11.895849 -22.614872 3.379040 0.000000 0.000000 0.000000 22.131908 2.377749 -1.398737 52.477952 6.311823 -2.503439 7.979005 20.505582 1.894251 0.000000 0.000000 0.000000 
-0.007436 0.953156 0.011241 0.767246 1.713295 1.463473 -0.531787 0.232493 2.352983 1.354651 -0.163254 0.414240 -2.667632 -4.102448 2.746916 0.000000 0.000000 0.000000 -0.450388 0.101359 -0.929433 -0.618163 0.252348 4.219044 1.091371 3.739817 -1.548267 0.000000 0.000000 0.000000 0.331811 -0.111449 2.465093 -1.451526 0.727459 -2.011507 -0.769817 -3.733392 7.235876 0.620898 0.590014 -18.437481 0.000000 0.000000 0.000000 -24.988949 -0.099931 -1.404276 -47.273008 -8.460561 -2.902232 -11.468282 -22.366503 3.259464 0.000000 0.000000 0.000000 22.317826 2.786357 -1.299752 52.250299 6.818770 -2.191351 7.618199 20.654300 1.833803 0.000000 0.000000 0.000000 
-0.010219 0.953556 0.014038 0.861342 1.623233 1.534551 -0.313425 0.231060 2.427108 1.316968 -0.202875 1.348715 -2.209583 -3.558745 2.049856 0.000000 0.000000 0.000000 -0.431945 0.152956 -1.463589 -0.786050 0.336629 5.550604 1.170234 4.539922 -2.466174 0.000000 0.000000 0.000000 0.299545 -0.124679 2.792427 -1.681436 0.830342 -1.936335 -0.316457 -4.096750 6.987023 0.593917 0.513173 -17.812997 0.000000 0.000000 0.000000 -25.338583 -0.186073 -1.211977 -47.016448 -8.690498 -2.842619 -11.109161 -22.096788 3.163877 0.000000 0.000000 0.000000 21.798361 3.036518 -1.262188 52.369641 6.779064 -2.161875 7.921667 21.519835 1.945689 0.000000 0.000000 0.000000 
-0.014177 0.953941 0.017774 0.937432 2.010453 1.366002 -0.084102 0.254559 2.801245 1.287913 -0.215458 1.701051 -2.037613 -3.155234 2.111529 0.000000 0.000000 0.000000 -0.396921 0.194838 -1.900093 -0.879769 0.412405 6.945097 1.084897 4.513352 -2.815296 0.000000 0.000000 0.000000 0.010336 -0.134878 3.301708 -1.367733 0.681763 -1.511248 -0.307820 -4.701161 6.128355 0.320826 0.631173 -17.651376 0.000000 0.000000 0.000000 -25.198626 0.172007 -1.328831 -47.030169 -8.810443 -2.753681 -10.881483 -21.581276 3.046945 0.000000 0.000000 0.000000 22.118016 3.201944 -1.361795 52.060609 7.386150 -1.770211 7.523096 21.139130 1.816517 0.000000 0.000000 0.000000 
